<?xml version="1.0" encoding="UTF-8"?>
<svg id="Layer_1" data-name="Layer 1" xmlns="http://www.w3.org/2000/svg" version="1.1" viewBox="0 0 722.5 135.1">
  <defs>
    <style>
      .cls-1 {
        fill: #000;
        stroke-width: 0px;
      }
    </style>
  </defs>
  <path class="cls-1" d="M353.7,59.9c-2,3.2-3.9,6.4-5.9,9.5-8,12.9-16,25.8-23.9,38.7-1.2,1.9-2.9,1.9-4,0-9.7-15.7-19.4-31.4-29.1-47-.2-.4-.5-.7-1-1.1,0,.5,0,.9,0,1.4,0,22.3,0,44.6,0,67,0,.4,0,.8,0,1.1-.1.3-.5.8-.8.8-4.8,0-9.5,0-14.3,0-.6,0-.9-.3-.8-.9,0-.3,0-.6,0-.8,0-34.4,0-68.8,0-103.3q0-1.7,1.7-1.7c2.5,0,5,0,7.4,0,1.1,0,1.7.4,2.3,1.3,11.9,19.2,23.8,38.3,35.8,57.4.3.4.5.8.9,1.3.3-.4.5-.8.8-1.1,12-19.2,24-38.5,35.9-57.7.5-.9,1.1-1.2,2.1-1.2,2.6,0,5.2,0,7.8,0,1.1,0,1.4.4,1.4,1.4,0,25.2,0,50.5,0,75.7,0,9.4,0,18.8,0,28.1,0,1.1-.3,1.4-1.4,1.4-4.3,0-8.6,0-13,0-.4,0-.9,0-1.4,0V59.9h-.3Z"/>
  <path class="cls-1" d="M612.9,23.6v14.5h-51v31h45.2v14.3h-45.2v32.3h53.2v14.5c-.4,0-.9,0-1.3,0-22.4,0-44.8,0-67.2,0-1.2,0-1.5-.4-1.4-1.5,0-34.6,0-69.2,0-103.7,0-1.1.3-1.5,1.5-1.5,21.6,0,43.3,0,64.9,0,.4,0,.9,0,1.4,0Z"/>
  <path class="cls-1" d="M178.9,23.6h16.6v1.6c0,22.5,0,45,0,67.6,0,3.2.6,6.5,1.4,9.7,1.9,7,6.6,11.4,13.6,13.2,5.7,1.5,11.5,1.5,17.2.2,8.6-2,13.5-7.6,15.2-16.1.5-2.6.7-5.3.7-8,0-22.2,0-44.3,0-66.5,0-.5,0-1,0-1.7h16.5v1.3c0,22.6,0,45.3,0,67.9,0,7.9-1.5,15.4-5.8,22.1-5.2,8.1-12.7,12.8-21.8,15-10.7,2.6-21.4,2.3-31.8-1.9-11.9-4.8-18.7-13.8-21-26.2-.6-3-.8-6.2-.8-9.3,0-22.4,0-44.8,0-67.2v-1.8Z"/>
  <path class="cls-1" d="M400.2,130.2h-16.4V23.7c.4,0,.8,0,1.2,0,11.1,0,22.2-.1,33.3,0,10.2.2,19.4,3.3,27,10.3,7.5,7,11.1,15.8,10.8,26-.5,14.7-9.9,26.9-24.3,31.7-4.7,1.6-9.5,2.3-14.4,2.3-5.3,0-10.6,0-15.8,0-1.1,0-1.4.3-1.4,1.4,0,11,0,22,0,33.1,0,.5,0,1,0,1.7ZM400.2,78.3c.3,0,.5,0,.7,0,6,0,11.9,0,17.9,0,4.5,0,8.8-1.3,12.7-3.8,9.9-6.2,12-19.4,4.2-28-4.6-5.1-10.6-7.2-17.2-7.3-5.7-.2-11.4,0-17.1,0-.4,0-.7,0-1.1,0v39Z"/>
  <path class="cls-1" d="M709.7,100c4.2,3,8.4,5.9,12.8,9-2.1,2.5-3.9,5-6.1,7.3-8.2,8.6-18.3,13.3-30,14.8-11.1,1.4-22,.2-32.2-4.6-16.1-7.7-26.1-20.4-29.8-37.8-2.6-12.2-1.4-24.2,4-35.5,7.4-15.7,19.8-25.4,36.6-29.2,12.4-2.9,24.6-2,36.4,3.1,7.9,3.4,14.1,9,18.9,16,0,.1.2.3.3.6-4.2,3-8.3,6-12.5,8.9-1.4-1.7-2.7-3.4-4.1-4.9-5.5-5.8-12.3-8.9-20.2-10-7.6-1-15-.2-22,3-10.1,4.7-16.7,12.6-19.8,23.2-3.6,12.3-2.6,24.2,4,35.3,6.1,10.3,15.4,16,27.3,17.4,8.9,1,17.4-.4,25-5.3,4-2.6,7.3-5.9,10.1-9.7.3-.4.6-.9,1-1.4Z"/>
  <path class="cls-1" d="M525.5,39.1c-4.4,2.7-8.6,5.3-13,8-.3-.5-.6-.9-.8-1.3-2.7-4.2-6.1-7.4-11.1-8.5-4-.8-7.9-.9-11.8.7-5,2.1-7.8,7.1-7.3,12.4.4,4.6,2.5,8.1,6.4,10.3,4.2,2.4,8.7,4.5,13.1,6.6,5.6,2.6,11.2,5,16.3,8.5,5.2,3.5,9.8,7.7,12,13.8,3.6,9.6,3.5,19.1-1.9,28.1-4,6.6-10.2,10.4-17.5,12.2-13.2,3.3-26,2.3-37.8-5-5.9-3.7-10.3-8.9-13.5-15.3,4.5-2.5,9-5,13.5-7.5,1.3,1.8,2.5,3.6,3.9,5.3,6.1,7.5,14.1,10.2,23.5,9.4,3.4-.3,6.6-1.3,9.6-3.1,8.1-5.1,8-16.5,1.6-22.1-3.7-3.3-8.2-5.3-12.6-7.4-5.7-2.7-11.5-5.3-17.1-8.3-4.6-2.4-8.4-5.8-11.3-10.2-3.8-6-4.9-12.6-4.1-19.5,1-9.3,5.9-16.1,14.3-20.3,5.8-3,12.1-3.8,18.6-3.3,5.4.3,10.5,1.5,15.2,4.2,5.1,2.9,8.8,7.2,11.8,12.4Z"/>
  <path class="cls-1" d="M37,135.1c0-.4,0-.6,0-.8,0-6.3,0-12.7,0-19,0-5.1,2.1-9,6.5-11.6,5.1-3,10.2-5.9,15.3-8.9,9.3-5.4,18.7-10.8,28-16.2.3-.2.6-.4,1-.7-.6-.4-1-.7-1.5-.9-15.2-8.8-30.5-17.6-45.7-26.5-4.1-2.4-7.1-5.6-8.1-10.3-.3-1.2-.4-2.4-.4-3.6,0-5.7,0-11.3,0-17,0-.3,0-.5,0-1,1.7,1,3.3,1.9,5,2.9,24.2,14,48.4,28,72.7,42,1.1.6,1.5,1.2,1.5,2.5,0,8.3,0,16.7,0,25,0,.8-.2,1.2-.9,1.6-24.2,14-48.3,27.9-72.5,41.9-.2.1-.5.3-.9.5ZM36.8,26.9c0,3.1,0,6,0,8.9,0,4.6,2,8,6,10.3,16.4,9.5,32.8,19,49.1,28.5.7.4,1.1.3,1.7,0,3.3-1.9,6.6-3.8,9.8-5.7.9-.5,1.8-1,2.9-1.7-23.2-13.4-46.2-26.8-69.5-40.2Z"/>
  <path class="cls-1" d="M147.7,23.7h16.5c0,.5,0,.9,0,1.3,0,25.3,0,50.7,0,76,0,4.7-.7,9.2-2.4,13.6-2.8,7.2-7.8,12.3-15.1,14.8-9.7,3.4-19.3,3.2-28.7-1.1-6.7-3-11.3-8.2-14.7-14.7,4.5-2.6,9.1-5.3,13.6-7.9.8,1.2,1.5,2.4,2.3,3.5,2.7,3.8,6.2,6.7,11,7.3,3.2.4,6.3.2,9.3-.9,4.7-1.9,6.8-5.7,7.6-10.4.3-2,.4-4,.4-6,0-24.6,0-49.3,0-73.9v-1.7Z"/>
  <path class="cls-1" d="M20.9,38.7c0,0-.1,0-.1,0-4.6-2.7-9.4-5.2-13.7-8.3C2.5,27.3.3,22.4,0,16.8,0,11.3,0,5.7,0,0c.4.2.7.4,1.1.5,6.4,3.7,12.7,7.3,19,11.1.4.2.8.8.8,1.2,0,8.5,0,17.1,0,25.6,0,.1,0,.2,0,.3ZM5,8.4c0,3.3-.3,6.5,0,9.5.8,6.5,5.3,9.9,10.9,12.4,0,0,0,0,.2-.1,0-.4,0-.8,0-1.2,0-4,0-8,0-12,0-1.6-.5-2.5-1.9-3.2-3.1-1.6-6.1-3.5-9.3-5.3Z"/>
</svg>