<?xml version="1.0" encoding="UTF-8"?>
<svg id="Layer_1" data-name="Layer 1" xmlns="http://www.w3.org/2000/svg" version="1.1" viewBox="0 0 1125.7 143.8">
  <defs>
    <style>
      .cls-1 {
        fill: none;
        stroke: #fff;
        stroke-miterlimit: 10;
        stroke-width: 3px;
      }

      .cls-2 {
        fill: #fff;
        stroke-width: 0px;
      }
    </style>
  </defs>
  <g>
    <g>
      <path class="cls-2" d="M111.3,91.6L39.9,50.3c-5.4-3.4-7.9-8-7.9-14.2v-17.4l79.3,46v27ZM36.9,27.2v8.9c0,4.6,1.6,7.5,5.6,10.1l63.9,37.1v-15.7L36.9,27.2Z"/>
      <path class="cls-2" d="M111.3,64.6l-66,38.3c-5.2,3-8.4,5.7-8.4,13.5v19.2l74.4-43.1v-27.9Z"/>
      <path class="cls-2" d="M21,39.2l-11.7-6.8c-1.5-.9-9.3-5.9-9.3-16.5V0l21,12.2v27ZM4.9,8.5v7.4c0,7.9,5.7,11.6,6.8,12.3l4.4,2.6v-15.7l-11.2-6.5Z"/>
    </g>
    <g>
      <path class="cls-2" d="M243.8,92.1c0,17.3-8.6,25-24.2,25s-24-7.7-24-25V23.7h-16.7v69.3c0,25.9,17.4,39,40.7,39s40.7-13,40.7-39V23.7h-16.5v68.4Z"/>
      <path class="cls-2" d="M504,68.8l-6.9-3.1c-10.8-4.7-15.4-8.3-15.4-16.3s5.3-12.4,13.8-12.4,13,3.3,17.1,10.4l13-8c-6.4-11.5-16-16.8-30.2-16.8s-30,11.3-30,27.2,9.4,24.4,25,31.3l7.1,3.1c11.6,5.2,17.9,9.3,17.9,18.5s-7.7,14.6-18.5,14.6-19.5-6.6-24.5-14.9l-13.7,7.5c6,12.1,18.2,22.2,38.5,22.2s34.7-10.8,34.7-29.5-9.7-25.6-28-33.6"/>
      <polygon class="cls-2" points="561.9 83.6 607.4 83.6 607.4 69.3 561.9 69.3 561.9 38.3 613.2 38.3 613.2 23.7 545.3 23.7 545.3 130.6 615.4 130.6 615.4 116 561.9 116 561.9 83.6"/>
      <path class="cls-2" d="M709.9,100.2c-6.9,10.2-16.8,16.8-31.6,16.8-22.2,0-37.9-17.1-37.9-39.9s15.7-39.8,37.9-39.8,24,6.1,30,15.4l12.7-9.1c-9.4-14.1-23.6-21.2-42.7-21.2-30.3,0-54.8,22.8-54.8,54.7s24.5,54.8,54.8,54.8,35-8.6,44.3-22.8l-12.7-9Z"/>
      <path class="cls-2" d="M417.4,23.7h-33.7v106.9h16.7v-36.2h17.1c22.1,0,38.8-15.2,38.8-35.3s-16.7-35.3-38.8-35.3M417.4,78.6h-17.1v-39.2h17.1c13.4,0,23.1,8.2,23.1,19.6s-9.7,19.6-23.1,19.6"/>
      <path class="cls-2" d="M147.7,23.7v76.7c0,12.4-5.8,16.7-14.8,16.7s-12.1-4.6-15.8-11.1l-13.7,8c5,9.9,14.5,18.1,30.3,18.1s30.6-10.1,30.6-31.3V23.7h-16.7Z"/>
      <polygon class="cls-2" points="359.4 23.7 321.9 83.9 321.9 83.9 284.5 23.7 273.9 23.7 273.9 130.5 289.8 130.5 289.8 59.7 320.7 109.7 321.9 109.7 321.9 109.7 323.2 109.7 354.1 59.7 354.1 130.6 370 130.6 370 23.7 359.4 23.7"/>
    </g>
  </g>
  <g>
    <path class="cls-2" d="M826.2,29.4h13v90h43.1v10.9h-56.2V29.4Z"/>
    <path class="cls-2" d="M913.2,98.6l-10.5,31.8h-13.5l34.3-101h15.7l34.4,101h-13.9l-10.8-31.8h-35.8ZM946.3,88.4l-9.9-29.1c-2.2-6.6-3.7-12.6-5.2-18.4h-.3c-1.5,6-3.1,12.1-5.1,18.3l-9.9,29.2h30.4Z"/>
    <path class="cls-2" d="M988.5,30.7c5.7-1.2,14.7-2.1,23.8-2.1,13,0,21.4,2.2,27.7,7.3,5.2,3.9,8.4,9.9,8.4,17.8s-6.4,18.3-17.1,22.2v.3c9.6,2.4,20.8,10.3,20.8,25.3s-3.4,15.3-8.5,20.2c-7,6.4-18.4,9.4-34.9,9.4s-15.9-.6-20.2-1.2V30.7ZM1001.6,72.1h11.8c13.8,0,21.9-7.2,21.9-16.9s-9-16.5-22.2-16.5-9.4.4-11.5.9v32.5ZM1001.6,120.4c2.5.4,6.3.6,10.9.6,13.5,0,25.9-4.9,25.9-19.6s-11.8-19.5-26.1-19.5h-10.8v38.5Z"/>
    <path class="cls-2" d="M1067.9,114.5c5.8,3.6,14.4,6.6,23.4,6.6,13.3,0,21.1-7,21.1-17.2s-5.4-14.8-19-20.1c-16.5-5.8-26.7-14.4-26.7-28.6s13-27.4,32.7-27.4,17.8,2.4,22.3,4.9l-3.6,10.6c-3.3-1.8-10-4.8-19.2-4.8-13.8,0-19,8.2-19,15.1s6.1,14.1,20.1,19.5c17.1,6.6,25.8,14.8,25.8,29.7s-11.5,29.1-35.3,29.1-20.4-2.8-25.8-6.4l3.3-10.9Z"/>
  </g>
  <line class="cls-1" x1="775.5" y1="8.5" x2="775.5" y2="143.8"/>
</svg>